<?xml version="1.0" encoding="UTF-8"?>
<svg xmlns="http://www.w3.org/2000/svg" xmlns:xlink="http://www.w3.org/1999/xlink" width="504.25pt" height="159.63pt" viewBox="0 0 504.25 159.63" version="1.1">
<defs>
<clipPath id="clip1">
  <path d="M 0 0 L 504.25 0 L 504.25 159.628906 L 0 159.628906 Z M 0 0 "/>
</clipPath>
</defs>
<g id="surface1">
<g clip-path="url(#clip1)" clip-rule="nonzero">
<path style=" stroke:none;fill-rule:nonzero;fill:rgb(13.299561%,12.199402%,12.5%);fill-opacity:1;" d="M 0 159.628906 L 504.25 159.628906 L 504.25 -0.00390625 L 0 -0.00390625 L 0 159.628906 "/>
</g>
<path style=" stroke:none;fill-rule:evenodd;fill:rgb(100%,100%,100%);fill-opacity:1;" d="M 63.007813 63.351563 C 69.269531 55.976563 77.285156 51.578125 86.292969 48.777344 C 93.070313 46.671875 100.019531 46.109375 106.816406 48.210938 C 118.019531 51.664063 124.179688 62.582031 120.578125 73.921875 C 112.476563 99.453125 96.140625 117.371094 69.476563 123.40625 C 51.082031 127.574219 33.949219 118.550781 29.0625 100.832031 C 26.121094 90.175781 28.128906 79.847656 32.542969 69.929688 C 42.847656 46.78125 61.035156 32.996094 84.96875 26.214844 C 89.207031 25.015625 93.65625 24.546875 98.015625 23.769531 C 98.683594 23.648438 99.480469 23.410156 100.03125 23.652344 C 101.644531 24.367188 104.183594 25.007813 104.507813 26.191406 C 105.179688 28.609375 102.726563 29.152344 100.777344 29.503906 C 97.953125 30.011719 97.847656 31.605469 99.089844 33.691406 C 99.726563 34.765625 100.519531 35.742188 101.230469 36.773438 C 103.558594 40.132813 102.800781 42.015625 98.75 42.53125 C 90.570313 43.578125 82.699219 45.660156 75.230469 49.171875 C 61.234375 55.75 50.488281 65.644531 44.070313 79.898438 C 41.730469 85.105469 40.726563 90.613281 41.933594 96.222656 C 44.132813 106.460938 53.019531 112.542969 64.089844 111.828125 C 77.15625 110.980469 87.175781 104.078125 96.292969 95.546875 C 102.851563 89.414063 108.335938 82.496094 110.3125 73.402344 C 112.484375 63.480469 106.65625 55.980469 96.582031 55.410156 C 85.414063 54.785156 75.296875 58.261719 65.386719 62.800781 C 64.773438 63.085938 64.148438 63.332031 63.511719 63.570313 C 63.441406 63.601563 63.3125 63.488281 63.007813 63.351563 "/>
<path style=" stroke:none;fill-rule:evenodd;fill:rgb(100%,100%,100%);fill-opacity:1;" d="M 257.902344 87.261719 C 253.054688 95.085938 248.203125 102.914063 243.351563 110.738281 C 242.636719 111.898438 242.09375 113.25 241.132813 114.160156 C 240.167969 115.074219 238.777344 115.542969 237.574219 116.207031 C 237.015625 115.066406 236.058594 113.953125 235.96875 112.773438 C 235.382813 105.164063 234.996094 97.535156 234.523438 89.917969 C 234.445313 88.699219 234.246094 87.488281 233.425781 86.191406 C 231.316406 93.148438 229.214844 100.109375 227.109375 107.066406 C 226.648438 108.589844 226.082031 110.085938 225.746094 111.636719 C 224.007813 119.667969 222.433594 118.515625 214.984375 118.390625 C 212.648438 118.355469 212.367188 116.664063 212.949219 114.703125 C 216.847656 101.535156 220.726563 88.359375 224.632813 75.191406 C 226.988281 67.25 229.476563 59.34375 231.679688 51.355469 C 232.378906 48.828125 233.476563 47.816406 236.144531 47.851563 C 244.5 47.96875 244.191406 47.390625 244.15625 55.890625 C 244.121094 66.234375 244.148438 76.582031 244.148438 86.925781 C 244.550781 86.996094 244.941406 87.066406 245.34375 87.140625 C 245.742188 86.691406 246.214844 86.292969 246.527344 85.792969 C 253.46875 74.5625 260.394531 63.320313 267.320313 52.082031 C 269.589844 48.40625 275.972656 46.210938 279.71875 48.214844 C 280.542969 48.65625 280.988281 51.003906 280.660156 52.21875 C 278.484375 60.21875 276.050781 68.152344 273.707031 76.105469 C 270.019531 88.632813 266.371094 101.167969 262.59375 113.664063 C 262.097656 115.308594 261.160156 117.824219 260.03125 118.066406 C 257.226563 118.664063 254.167969 118.347656 251.277344 117.941406 C 250.871094 117.882813 250.34375 115.109375 250.699219 113.828125 C 253.085938 105.421875 255.703125 97.082031 258.238281 88.714844 C 258.363281 88.300781 258.398438 87.855469 258.472656 87.425781 C 258.28125 87.371094 258.089844 87.316406 257.902344 87.261719 "/>
<path style=" stroke:none;fill-rule:evenodd;fill:rgb(100%,100%,100%);fill-opacity:1;" d="M 301.300781 76.671875 C 302.894531 76.671875 304.503906 76.828125 306.074219 76.644531 C 311.070313 76.058594 314.832031 73.632813 316.726563 68.828125 C 318.972656 63.140625 316.25 58.757813 310.152344 58.304688 C 307.886719 58.132813 305.589844 58.417969 303.328125 58.222656 C 300.707031 57.992188 299.371094 58.953125 298.808594 61.570313 C 298.191406 64.441406 297.226563 67.242188 296.324219 70.042969 C 294.167969 76.742188 294.148438 76.734375 301.300781 76.671875 Z M 285.277344 107.476563 C 289.628906 107.476563 293.148438 107.339844 296.65625 107.507813 C 304.785156 107.890625 309.191406 99.644531 306.515625 92.378906 C 305.929688 90.789063 304.085938 88.894531 302.535156 88.59375 C 299.238281 87.953125 295.742188 88.214844 292.335938 88.230469 C 291.796875 88.234375 290.921875 88.773438 290.773438 89.246094 C 288.953125 95.0625 287.234375 100.914063 285.277344 107.476563 Z M 312.789063 84.945313 C 321.382813 95.585938 318.59375 111.058594 307.316406 116.4375 C 304.925781 117.574219 302.117188 118.25 299.472656 118.347656 C 292.070313 118.609375 284.65625 118.507813 277.242188 118.441406 C 272.554688 118.402344 270.9375 116.15625 272.253906 111.652344 C 277.949219 92.152344 283.65625 72.652344 289.402344 53.164063 C 290.648438 48.925781 292.003906 47.984375 296.554688 47.96875 C 301.679688 47.945313 306.8125 47.945313 311.941406 47.964844 C 325.65625 48.011719 332.40625 58.1875 327.222656 70.914063 C 324.96875 76.429688 321.101563 80.414063 315.964844 83.269531 C 314.988281 83.804688 314 84.308594 312.789063 84.945313 "/>
<path style=" stroke:none;fill-rule:evenodd;fill:rgb(100%,100%,100%);fill-opacity:1;" d="M 396.097656 78.238281 C 397.804688 78.238281 399.515625 78.390625 401.199219 78.210938 C 407.746094 77.519531 411.9375 73.34375 412.757813 66.839844 C 413.253906 62.910156 411.671875 60.253906 407.777344 59.675781 C 404.21875 59.148438 400.519531 59.050781 396.9375 59.339844 C 395.664063 59.441406 394.007813 61.027344 393.453125 62.328125 C 392.261719 65.113281 391.710938 68.171875 390.824219 71.097656 C 388.664063 78.246094 388.644531 78.242188 396.097656 78.238281 Z M 400.847656 88.84375 C 404.082031 95.230469 407.089844 101.179688 410.097656 107.128906 C 411.433594 109.765625 412.828125 112.375 414.066406 115.058594 C 415.023438 117.125 414.28125 118.246094 411.9375 118.472656 C 404.714844 119.175781 404.21875 118.917969 400.800781 112.394531 C 397.21875 105.546875 393.667969 98.679688 389.945313 91.902344 C 389.210938 90.566406 387.75 89.625 386.617188 88.5 C 385.953125 89.734375 385.050781 90.894531 384.652344 92.207031 C 382.421875 99.585938 380.253906 106.992188 378.164063 114.421875 C 377.28125 117.558594 375.476563 118.65625 372.179688 118.546875 C 365.171875 118.316406 365.101563 118.46875 367.066406 111.804688 C 372.9375 91.882813 378.894531 71.988281 384.734375 52.0625 C 385.601563 49.089844 387.199219 47.78125 390.363281 47.863281 C 396.402344 48.023438 402.449219 47.851563 408.484375 47.921875 C 419.296875 48.054688 425.707031 55.851563 423.835938 66.527344 C 421.902344 77.558594 415.757813 84.8125 404.75 87.664063 C 403.660156 87.945313 402.605469 88.3125 400.847656 88.84375 "/>
<path style=" stroke:none;fill-rule:evenodd;fill:rgb(100%,100%,100%);fill-opacity:1;" d="M 148.078125 69.046875 C 152.550781 63.800781 157.039063 59.246094 160.660156 54.089844 C 164.210938 49.039063 168.425781 46.859375 174.484375 47.828125 C 176.34375 48.125 178.300781 47.871094 181.078125 47.871094 C 179.960938 49.421875 179.335938 50.402344 178.59375 51.285156 C 170.417969 61.085938 162.257813 70.902344 153.996094 80.628906 C 152.496094 82.390625 152.203125 83.929688 152.867188 86.160156 C 155.65625 95.632813 158.160156 105.191406 160.925781 114.667969 C 161.710938 117.359375 161.246094 118.445313 158.273438 118.507813 C 149.0625 118.695313 149.03125 118.773438 146.382813 109.902344 C 144.957031 105.125 143.664063 100.308594 142.136719 94.894531 C 138.867188 98.707031 135.941406 102.089844 133.039063 105.496094 C 130.238281 108.796875 127.367188 112.050781 124.695313 115.457031 C 122.992188 117.625 121.003906 118.648438 118.234375 118.464844 C 115.96875 118.316406 113.667969 118.523438 111.402344 118.390625 C 110.476563 118.332031 109.582031 117.789063 108.667969 117.46875 C 109.050781 116.578125 109.246094 115.535156 109.832031 114.820313 C 117.914063 105.09375 125.855469 95.230469 134.277344 85.804688 C 137.5 82.203125 138.058594 79.058594 136.601563 74.605469 C 134.011719 66.742188 132.023438 58.683594 129.804688 50.699219 C 129.597656 49.964844 129.539063 49.1875 129.332031 47.9375 C 133.3125 47.9375 137.039063 47.820313 140.753906 48.042969 C 141.46875 48.089844 142.441406 49.378906 142.710938 50.269531 C 144.511719 56.246094 146.164063 62.269531 148.078125 69.046875 "/>
<path style=" stroke:none;fill-rule:evenodd;fill:rgb(100%,100%,100%);fill-opacity:1;" d="M 449.234375 118.4375 C 450.0625 115.332031 450.660156 113.070313 451.351563 110.472656 C 449.261719 112.015625 447.472656 113.472656 445.550781 114.734375 C 435.429688 121.402344 425.097656 117.542969 422.015625 105.792969 C 418.613281 92.820313 422.640625 81.203125 429.710938 70.621094 C 440.71875 54.160156 456.75 47.355469 476.230469 47.933594 C 478.996094 48.019531 479.78125 49.289063 478.984375 51.953125 C 477.230469 57.78125 477.257813 57.511719 471.472656 58.269531 C 455.914063 60.300781 442.398438 66.058594 434.738281 80.828125 C 431.574219 86.917969 429.660156 93.554688 431.613281 100.554688 C 432.90625 105.191406 436.363281 106.859375 440.835938 105.160156 C 446.714844 102.929688 450.296875 98.199219 453.296875 93.027344 C 455.574219 89.101563 457.746094 85.074219 459.523438 80.902344 C 460.898438 77.675781 462.890625 76.546875 466.324219 76.644531 C 472.972656 76.832031 473.070313 76.695313 471.257813 82.902344 C 468.082031 93.796875 464.765625 104.648438 461.554688 115.53125 C 460.949219 117.578125 459.789063 118.550781 457.601563 118.460938 C 455.03125 118.359375 452.449219 118.4375 449.234375 118.4375 "/>
<path style=" stroke:none;fill-rule:evenodd;fill:rgb(100%,100%,100%);fill-opacity:1;" d="M 340.144531 118.472656 C 335.921875 118.472656 331.703125 118.480469 327.492188 118.46875 C 322.871094 118.457031 322.15625 117.582031 323.429688 113.21875 C 327.851563 98.074219 332.3125 82.945313 336.769531 67.8125 C 338.277344 62.699219 339.902344 57.613281 341.273438 52.460938 C 342.117188 49.265625 343.640625 47.746094 347.230469 47.835938 C 356.339844 48.066406 365.460938 47.894531 374.578125 47.917969 C 378.15625 47.925781 378.515625 48.375 377.453125 51.664063 C 374.589844 60.5 376.359375 59.03125 367.394531 59.140625 C 363.296875 59.191406 359.1875 59.121094 355.085938 59.132813 C 352.78125 59.136719 351.308594 60.003906 350.730469 62.519531 C 349.945313 65.941406 348.691406 69.253906 347.734375 72.640625 C 346.632813 76.542969 347.257813 77.363281 351.238281 77.378906 C 356.140625 77.402344 361.042969 77.460938 365.941406 77.355469 C 368.667969 77.296875 369.433594 78.46875 368.714844 80.933594 C 368.171875 82.785156 367.914063 84.800781 366.96875 86.414063 C 366.375 87.417969 364.757813 88.324219 363.5625 88.367188 C 357.871094 88.574219 352.164063 88.566406 346.472656 88.433594 C 343.867188 88.371094 342.511719 89.300781 341.867188 91.855469 C 340.894531 95.699219 339.710938 99.5 338.46875 103.273438 C 337.609375 105.875 338.871094 106.644531 341.097656 106.660156 C 346 106.703125 350.902344 106.667969 355.796875 106.683594 C 360.457031 106.695313 360.90625 107.292969 359.613281 111.566406 C 357.347656 119.03125 358.371094 118.492188 350.0625 118.472656 C 346.753906 118.46875 343.449219 118.472656 340.144531 118.472656 "/>
<path style=" stroke:none;fill-rule:evenodd;fill:rgb(100%,100%,100%);fill-opacity:1;" d="M 205.121094 47.910156 C 210.132813 47.90625 215.144531 47.933594 220.160156 47.894531 C 222.394531 47.878906 223.222656 48.601563 222.625 51.007813 C 220.636719 59.132813 220.707031 59.148438 212.414063 59.144531 C 208.308594 59.144531 204.214844 59.179688 200.109375 59.113281 C 197.710938 59.078125 196.335938 60.023438 195.707031 62.433594 C 194.648438 66.492188 193.402344 70.507813 192.152344 74.511719 C 191.316406 77.183594 192.199219 78.386719 194.992188 78.363281 C 199.890625 78.324219 204.789063 78.316406 209.6875 78.34375 C 213.898438 78.363281 214.363281 79.003906 213.128906 82.871094 C 212.890625 83.625 212.609375 84.382813 212.480469 85.160156 C 212.046875 87.820313 210.445313 88.578125 207.886719 88.507813 C 202.417969 88.367188 196.945313 88.5625 191.476563 88.433594 C 188.886719 88.371094 187.4375 89.382813 186.761719 91.835938 C 185.714844 95.667969 184.554688 99.464844 183.445313 103.273438 C 182.710938 105.808594 183.359375 107.1875 186.300781 107.132813 C 191.308594 107.03125 196.328125 107.058594 201.335938 107.132813 C 205.074219 107.1875 205.492188 107.808594 204.5625 111.394531 C 204.394531 112.050781 204.277344 112.726563 204.089844 113.382813 C 202.671875 118.308594 202.460938 118.46875 197.246094 118.46875 C 188.925781 118.472656 180.605469 118.480469 172.292969 118.46875 C 167.957031 118.457031 167.183594 117.449219 168.46875 112.96875 C 171.339844 102.929688 174.320313 92.917969 177.269531 82.902344 C 180.355469 72.457031 183.578125 62.050781 186.5 51.558594 C 187.292969 48.726563 188.5 47.683594 191.445313 47.847656 C 195.996094 48.09375 200.5625 47.910156 205.121094 47.910156 "/>
</g>
</svg>
