<svg id="Capa_1" enable-background="new 0 0 512 512" height="512" viewBox="0 0 512 512" width="512" xmlns="http://www.w3.org/2000/svg"><g><g><path d="m19.747 352v-262.333c0-8.284 6.716-15 15-15h288.184c8.284 0 15 6.716 15 15v262.333z" fill="#a2c3fe"/></g><g><path d="m322.931 74.667h-30c8.284 0 15 6.716 15 15v262.333h30v-262.333c0-8.285-6.716-15-15-15z" fill="#77a2f3"/></g><g><path d="m466.662 225.439-18.113-96.405c-2.298-12.228-12.976-21.087-25.418-21.087h-89.477v244.053h158.6v-85.184c0-7.52-3.273-14.668-8.967-19.581l-8.103-6.991c-4.436-3.827-7.441-9.047-8.522-14.805z" fill="#fafaef"/></g><g><path d="m483.287 247.235-8.102-6.992c-4.436-3.827-7.441-9.047-8.523-14.805l-18.112-96.405c-2.298-12.228-12.976-21.087-25.418-21.087h-30c12.442 0 23.121 8.859 25.418 21.087l18.112 96.405c1.082 5.758 4.087 10.978 8.523 14.805l8.102 6.992c5.694 4.913 8.967 12.061 8.967 19.581v85.184h30v-85.184c0-7.52-3.274-14.668-8.967-19.581z" fill="#f2e4c8"/></g><g><path d="m447.547 152.999h-61.887c-6.625 0-11.996 5.371-11.996 11.996v59.091c0 6.625 5.371 11.996 11.996 11.996h82.673" fill="#b5e9ff"/></g><g><path d="m454.334 352h37.92v-53.333h-22.92c-8.284 0-15 6.716-15 15z" fill="#ffdf8e"/></g><g><path d="m57.667 352h-37.92v-64h22.92c8.284 0 15 6.716 15 15z" fill="#e98583"/></g><g><path d="m7.5 369v-15.833c0-8.284 6.716-15 15-15h467c8.284 0 15 6.716 15 15v15.833c0 8.284-6.716 15-15 15h-467c-8.284 0-15-6.716-15-15z" fill="#c2bbc5"/></g><g><ellipse cx="101.334" cy="378.667" fill="#877d89" rx="58.667" ry="58.667" transform="matrix(.23 -.973 .973 .23 -290.485 390.29)"/></g><g><ellipse cx="101.334" cy="378.667" fill="#e2e1e3" rx="23.467" ry="23.467" transform="matrix(.23 -.973 .973 .23 -290.485 390.29)"/></g><g><ellipse cx="410.667" cy="378.667" fill="#877d89" rx="58.667" ry="58.667" transform="matrix(.987 -.16 .16 .987 -55.353 70.671)"/></g><g><path d="m101.334 320c-5.186 0-10.211.68-15 1.943 25.132 6.629 43.666 29.509 43.666 56.724s-18.534 50.095-43.667 56.723c4.789 1.263 9.814 1.943 15 1.943 32.401 0 58.667-26.266 58.667-58.667 0-32.4-26.266-58.666-58.666-58.666z" fill="#766e78"/></g><g><path d="m410.667 320c-5.185 0-10.211.68-15 1.943 25.133 6.629 43.667 29.509 43.667 56.724s-18.534 50.095-43.667 56.723c4.789 1.263 9.815 1.943 15 1.943 32.401 0 58.667-26.266 58.667-58.667 0-32.4-26.266-58.666-58.667-58.666z" fill="#766e78"/></g><g><ellipse cx="410.667" cy="378.667" fill="#e2e1e3" rx="23.467" ry="23.467" transform="matrix(.987 -.16 .16 .987 -55.353 70.671)"/></g><g><path d="m259.304 250.354h-75.939c-6.278 0-11.367-5.089-11.367-11.367v-45.043c0-4.392 2.03-8.537 5.5-11.229l35.123-27.254c5.128-3.979 12.299-3.979 17.426 0l35.123 27.254c3.47 2.692 5.5 6.837 5.5 11.229v45.043c.001 6.278-5.088 11.367-11.366 11.367z" fill="#ffdf8e"/></g><g><path d="m447.547 152.999h-30l20.786 83.084h30z" fill="#93ddfe"/></g><g><path d="m265.171 182.716-35.123-27.254c-5.127-3.979-12.299-3.979-17.426 0l-6.287 4.878 28.837 22.376c3.47 2.692 5.5 6.837 5.5 11.229v45.043c0 6.278-5.089 11.367-11.367 11.367h30c6.278 0 11.367-5.089 11.367-11.367v-45.043c-.001-4.392-2.032-8.537-5.501-11.229z" fill="#ffcd75"/></g><g><circle cx="84.367" cy="196.498" fill="none" r="7.5"/></g><g><path d="m499.754 333.149v-66.333c0-9.71-4.217-18.917-11.568-25.259l-8.103-6.991c-3.137-2.707-5.285-6.44-6.05-10.512l-18.113-96.405c-2.961-15.762-16.751-27.202-32.789-27.202h-77.7v-10.78c0-12.407-10.094-22.5-22.5-22.5h-221.743c-4.143 0-7.5 3.358-7.5 7.5s3.357 7.5 7.5 7.5h221.743c4.136 0 7.5 3.364 7.5 7.5v241h-183.628c-11.865-11.246-27.869-18.167-45.469-18.167-13.341 0-25.764 3.982-36.167 10.801v-20.301c0-12.407-10.094-22.5-22.5-22.5h-15.42v-190.834c0-4.136 3.364-7.5 7.5-7.5h36.44c4.143 0 7.5-3.358 7.5-7.5s-3.357-7.5-7.5-7.5h-36.44c-12.406 0-22.5 10.093-22.5 22.5v243.482c-7.263 3.736-12.247 11.304-12.247 20.019v15.833c0 12.407 10.094 22.5 22.5 22.5h13.927c5.993 30.362 32.814 53.333 64.907 53.333s58.913-22.972 64.906-53.333h83.347c4.143 0 7.5-3.358 7.5-7.5s-3.357-7.5-7.5-7.5h-82.142c-.363-11.2-3.519-21.7-8.799-30.833h194.707c-5.28 9.133-8.436 19.633-8.799 30.833h-64.968c-4.143 0-7.5 3.358-7.5 7.5s3.357 7.5 7.5 7.5h66.173c5.993 30.362 32.814 53.333 64.907 53.333s58.914-22.972 64.907-53.333h13.927c12.406 0 22.5-10.093 22.5-22.5v-15.833c0-8.715-4.983-16.282-12.246-20.018zm-15-2.482h-22.92v-17c0-4.136 3.364-7.5 7.5-7.5h15.42zm-25.076-102.084h-74.018c-2.479 0-4.496-2.017-4.496-4.497v-59.091c0-2.479 2.017-4.496 4.496-4.496h61.169c.001 0 12.706 67.501 12.849 68.084zm-114.247-113.136h77.7c8.827 0 16.417 6.296 18.047 14.972l2.833 15.081h-58.351c-10.75 0-19.496 8.746-19.496 19.496v59.091c0 10.751 8.746 19.497 19.496 19.497h82.189c.772.817 10.538 9.331 10.538 9.331 4.047 3.491 6.367 8.559 6.367 13.902v24.35h-15.42c-12.406 0-22.5 10.093-22.5 22.5v9.634c-10.403-6.819-22.826-10.801-36.167-10.801-17.6 0-33.604 6.921-45.47 18.167h-19.767v-215.22zm-295.264 187.553v27.667h-22.92v-35.167h15.42c4.136 0 7.5 3.364 7.5 7.5zm-35.167 66v-15.833c0-4.136 3.364-7.5 7.5-7.5h21.521c-5.28 9.133-8.436 19.633-8.799 30.833h-12.722c-4.136 0-7.5-3.364-7.5-7.5zm86.334 60.833c-28.214 0-51.167-22.954-51.167-51.167s22.953-51.166 51.167-51.166c28.213 0 51.166 22.953 51.166 51.167s-22.953 51.166-51.166 51.166zm309.333 0c-28.214 0-51.167-22.954-51.167-51.167s22.953-51.167 51.167-51.167 51.167 22.953 51.167 51.167-22.953 51.167-51.167 51.167zm86.333-60.833c0 4.136-3.364 7.5-7.5 7.5h-12.721c-.363-11.2-3.519-21.7-8.799-30.833h21.52c4.136 0 7.5 3.364 7.5 7.5z"/><path d="m101.334 347.7c-17.075 0-30.967 13.892-30.967 30.966 0 17.075 13.892 30.967 30.967 30.967 17.074 0 30.966-13.892 30.966-30.967 0-17.074-13.892-30.966-30.966-30.966zm0 46.933c-8.804 0-15.967-7.163-15.967-15.967s7.163-15.966 15.967-15.966 15.966 7.163 15.966 15.966c0 8.805-7.162 15.967-15.966 15.967z"/><path d="m410.667 347.7c-17.075 0-30.967 13.892-30.967 30.966 0 17.075 13.892 30.967 30.967 30.967s30.967-13.892 30.967-30.967c0-17.074-13.892-30.966-30.967-30.966zm0 46.933c-8.804 0-15.967-7.163-15.967-15.967s7.163-15.966 15.967-15.966 15.967 7.163 15.967 15.966c0 8.805-7.163 15.967-15.967 15.967z"/><path d="m183.364 257.854h75.939c10.403 0 18.867-8.463 18.867-18.867v-45.043c0-6.758-3.062-13.011-8.402-17.154l-35.123-27.253c-7.837-6.081-18.785-6.083-26.622-.001l-35.123 27.254c-4.005 3.108-6.73 7.403-7.841 12.208h-50.726c-4.143 0-7.5 3.358-7.5 7.5s3.357 7.5 7.5 7.5h50.164v17h-40.626c-4.143 0-7.5 3.358-7.5 7.5s3.357 7.5 7.5 7.5h40.626v2.99c.001 10.403 8.464 18.866 18.867 18.866zm-3.866-63.909c0-2.089.947-4.022 2.598-5.304l35.123-27.253c1.212-.94 2.663-1.41 4.115-1.41s2.904.47 4.115 1.41l35.124 27.253c1.65 1.281 2.598 3.214 2.598 5.304v45.043c0 2.132-1.734 3.867-3.867 3.867h-30.47v-24.872c0-4.142-3.357-7.5-7.5-7.5s-7.5 3.358-7.5 7.5v24.872h-30.47c-2.132 0-3.866-1.734-3.866-3.867z"/></g></g></svg>